<?xml version="1.0" encoding="UTF-8" standalone="no"?>
<!-- Created with Inkscape (http://www.inkscape.org/) -->

<svg
   xmlns:dc="http://purl.org/dc/elements/1.1/"
   xmlns:cc="http://creativecommons.org/ns#"
   xmlns:rdf="http://www.w3.org/1999/02/22-rdf-syntax-ns#"
   xmlns:svg="http://www.w3.org/2000/svg"
   xmlns="http://www.w3.org/2000/svg"
   xmlns:xlink="http://www.w3.org/1999/xlink"
   xmlns:sodipodi="http://sodipodi.sourceforge.net/DTD/sodipodi-0.dtd"
   xmlns:inkscape="http://www.inkscape.org/namespaces/inkscape"
   width="287.34921"
   height="353.21533"
   id="svg2"
   version="1.1"
   inkscape:version="0.48.1 r9760"
   sodipodi:docname="subscribeNow.svg"
   inkscape:export-filename="/Users/rudy/Dropbox/web/tdchannel/web/public/images/TDC1/subscribeNow.png"
   inkscape:export-xdpi="86.040001"
   inkscape:export-ydpi="86.040001">
  <defs
     id="defs4">
    <linearGradient
       id="linearGradient4015">
      <stop
         style="stop-color:#ffffff;stop-opacity:0;"
         offset="0"
         id="stop4017" />
      <stop
         id="stop4023"
         offset="0.5"
         style="stop-color:#ffffff;stop-opacity:1;" />
      <stop
         style="stop-color:#ffffff;stop-opacity:0;"
         offset="1"
         id="stop4019" />
    </linearGradient>
    <linearGradient
       id="linearGradient3963">
      <stop
         style="stop-color:#4490ff;stop-opacity:1;"
         offset="0"
         id="stop3965" />
      <stop
         style="stop-color:#333ced;stop-opacity:1;"
         offset="1"
         id="stop3967" />
    </linearGradient>
    <linearGradient
       id="linearGradient3783">
      <stop
         style="stop-color:#ffc42e;stop-opacity:1;"
         offset="0"
         id="stop3785" />
      <stop
         style="stop-color:#ffa30f;stop-opacity:1;"
         offset="1"
         id="stop3787" />
    </linearGradient>
    <filter
       id="filter3917"
       inkscape:label="Drop shadow"
       width="1.5"
       height="1.5"
       x="-0.25"
       y="-0.25"
       color-interpolation-filters="sRGB">
      <feGaussianBlur
         id="feGaussianBlur3919"
         in="SourceAlpha"
         stdDeviation="2"
         result="blur" />
      <feColorMatrix
         id="feColorMatrix3921"
         result="bluralpha"
         type="matrix"
         values="1 0 0 0 0 0 1 0 0 0 0 0 1 0 0 0 0 0 0.5 0 " />
      <feOffset
         id="feOffset3923"
         in="bluralpha"
         dx="0"
         dy="3"
         result="offsetBlur" />
      <feMerge
         id="feMerge3925">
        <feMergeNode
           id="feMergeNode3927"
           in="offsetBlur" />
        <feMergeNode
           id="feMergeNode3929"
           in="SourceGraphic" />
      </feMerge>
    </filter>
    <linearGradient
       inkscape:collect="always"
       xlink:href="#linearGradient3963"
       id="linearGradient4248"
       gradientUnits="userSpaceOnUse"
       x1="218.29819"
       y1="173.54442"
       x2="218.97487"
       y2="488.1918" />
    <radialGradient
       inkscape:collect="always"
       xlink:href="#linearGradient3783"
       id="radialGradient4250"
       gradientUnits="userSpaceOnUse"
       cx="-12.296564"
       cy="214.74916"
       fx="-12.296564"
       fy="214.74916"
       r="50.824024" />
    <linearGradient
       inkscape:collect="always"
       xlink:href="#linearGradient4015"
       id="linearGradient4252"
       gradientUnits="userSpaceOnUse"
       gradientTransform="matrix(1,0,0,0.50000023,0,109.50111)"
       x1="147.58211"
       y1="232.83235"
       x2="318.24069"
       y2="232.83235" />
    <linearGradient
       inkscape:collect="always"
       xlink:href="#linearGradient4015"
       id="linearGradient4254"
       gradientUnits="userSpaceOnUse"
       gradientTransform="matrix(1,0,0,0.50000023,0,162.83442)"
       x1="147.58211"
       y1="232.83235"
       x2="318.24069"
       y2="232.83235" />
    <linearGradient
       inkscape:collect="always"
       xlink:href="#linearGradient4015"
       id="linearGradient4256"
       gradientUnits="userSpaceOnUse"
       gradientTransform="matrix(1,0,0,0.50000023,0,216.1678)"
       x1="147.58211"
       y1="232.83235"
       x2="318.24069"
       y2="232.83235" />
    <linearGradient
       inkscape:collect="always"
       xlink:href="#linearGradient4015"
       id="linearGradient4258"
       gradientUnits="userSpaceOnUse"
       gradientTransform="matrix(1,0,0,0.50000023,0,269.50111)"
       x1="147.58211"
       y1="232.83235"
       x2="318.24069"
       y2="232.83235" />
  </defs>
  <sodipodi:namedview
     id="base"
     pagecolor="#ffffff"
     bordercolor="#666666"
     borderopacity="1.0"
     inkscape:pageopacity="0.0"
     inkscape:pageshadow="2"
     inkscape:zoom="1.3825"
     inkscape:cx="275.74967"
     inkscape:cy="171.01006"
     inkscape:document-units="px"
     inkscape:current-layer="layer1"
     showgrid="false"
     inkscape:window-width="1440"
     inkscape:window-height="852"
     inkscape:window-x="0"
     inkscape:window-y="22"
     inkscape:window-maximized="0"
     fit-margin-top="0"
     fit-margin-left="0"
     fit-margin-right="0"
     fit-margin-bottom="0" />
  <metadata
     id="metadata7">
    <rdf:RDF>
      <cc:Work
         rdf:about="">
        <dc:format>image/svg+xml</dc:format>
        <dc:type
           rdf:resource="http://purl.org/dc/dcmitype/StillImage" />
        <dc:title></dc:title>
      </cc:Work>
    </rdf:RDF>
  </metadata>
  <g
     inkscape:label="Layer 1"
     inkscape:groupmode="layer"
     id="layer1"
     transform="translate(35.536629,-0.25779663)">
    <g
       id="g4176"
       transform="translate(-131.26582,-170.1953)">
      <rect
         inkscape:export-ydpi="79.540001"
         inkscape:export-xdpi="79.540001"
         inkscape:export-filename="/Users/rudy/Dropbox/web/tdchannel/web/public/images/TDC1/subscribeNow.png"
         ry="26.114239"
         y="171.164"
         x="131.4865"
         height="321.57819"
         width="198.8932"
         id="rect3961"
         style="fill:url(#linearGradient4248);fill-opacity:1;stroke:#ff7225;stroke-width:1.42180967;stroke-linecap:round;stroke-linejoin:round;stroke-miterlimit:4;stroke-opacity:1;stroke-dasharray:none;stroke-dashoffset:0" />
      <g
         id="text2987"
         style="font-size:25.95536423px;font-style:normal;font-variant:normal;font-weight:bold;font-stretch:normal;text-align:start;line-height:125%;letter-spacing:0px;word-spacing:0px;writing-mode:lr-tb;text-anchor:start;fill:#ffffff;fill-opacity:1;stroke:#ffffff;stroke-width:0.87239861;filter:url(#filter3917);font-family:Skia;-inkscape-font-specification:Skia Bold">
        <path
           id="path4150"
           style="fill:#ffffff;stroke:#ffffff"
           d="m 150.8321,208.51943 c -2e-5,0.87025 -0.20702,1.63489 -0.62101,2.29391 -0.40556,0.65057 -0.95475,1.17864 -1.64755,1.58419 -0.63369,0.37176 -1.3603,0.6548 -2.17985,0.84912 -0.81956,0.18588 -1.72783,0.27882 -2.72481,0.27882 -0.54074,0 -1.10259,-0.0169 -1.68557,-0.0507 -0.57454,-0.0338 -0.90827,-0.0549 -1.00121,-0.0634 l -0.10139,-1.82499 c 0.11829,0.0169 0.4478,0.0507 0.98853,0.10139 0.54074,0.0422 1.17864,0.0634 1.91371,0.0634 0.44779,0 1.02655,-0.0591 1.73627,-0.17743 0.70971,-0.11828 1.25467,-0.27037 1.63488,-0.45625 0.49849,-0.24502 0.87869,-0.54073 1.14062,-0.88714 0.27036,-0.34641 0.40554,-0.78576 0.40555,-1.31805 -1e-5,-0.56608 -0.13519,-1.04345 -0.40555,-1.43211 -0.26193,-0.39709 -0.70128,-0.7773 -1.31805,-1.14061 -0.39711,-0.23657 -0.9125,-0.50271 -1.54617,-0.79843 -0.63368,-0.29571 -1.20399,-0.59988 -1.71092,-0.9125 -0.8618,-0.52383 -1.47858,-1.09414 -1.85034,-1.71092 -0.3633,-0.62522 -0.54496,-1.31804 -0.54496,-2.07846 0,-0.7773 0.16476,-1.44899 0.49427,-2.01509 0.33796,-0.57452 0.77308,-1.06456 1.30537,-1.47013 0.54074,-0.40553 1.19976,-0.7097 1.97707,-0.91249 0.78575,-0.20276 1.656,-0.30415 2.61075,-0.30416 0.52383,10e-6 1.05189,0.0169 1.58419,0.0507 0.54072,0.0254 0.84911,0.0423 0.92516,0.0507 l 0.17743,1.83766 c -0.0761,-0.008 -0.38444,-0.038 -0.92516,-0.0887 -0.54075,-0.0507 -1.20822,-0.076 -2.00242,-0.076 -0.47315,1e-5 -0.96319,0.0549 -1.47013,0.16475 -0.4985,0.10141 -0.93784,0.26194 -1.31804,0.4816 -0.33797,0.19434 -0.62524,0.46471 -0.8618,0.8111 -0.23658,0.34643 -0.35487,0.75198 -0.35486,1.21666 -1e-5,0.41401 0.1225,0.81534 0.36753,1.20398 0.25347,0.38022 0.72239,0.7731 1.40676,1.17864 0.3464,0.21124 0.80265,0.45626 1.36874,0.73507 0.57453,0.27037 1.13638,0.56609 1.68558,0.88714 0.84489,0.4985 1.47857,1.07303 1.90103,1.7236 0.43088,0.64213 0.64633,1.37719 0.64635,2.20519"
           inkscape:connector-curvature="0" />
        <path
           id="path4152"
           style="fill:#ffffff;stroke:#ffffff"
           d="m 165.22921,213.29735 -1.93905,0 0,-1.47013 -0.0127,-0.0127 c -0.59144,0.38865 -1.33073,0.78998 -2.21787,1.20398 -0.8787,0.40555 -1.74472,0.60833 -2.59807,0.60833 -1.16597,0 -2.07846,-0.34641 -2.73748,-1.03923 -0.65902,-0.69282 -0.98853,-1.66445 -0.98853,-2.91491 0,-0.67591 0.004,-1.47857 0.0127,-2.40797 0.0169,-0.93783 0.0254,-1.61797 0.0254,-2.04043 0,-0.76885 -0.0127,-1.71514 -0.038,-2.83887 -0.0169,-1.13216 -0.0253,-1.77006 -0.0253,-1.9137 l 2.00242,0 c -1e-5,0.10985 -0.008,0.71818 -0.0254,1.82498 -0.0169,1.10684 -0.0254,1.98976 -0.0254,2.64877 0,0.58299 0.004,1.3096 0.0127,2.17984 0.008,0.87026 0.0127,1.48704 0.0127,1.85034 0.0169,0.99699 0.1901,1.72782 0.51961,2.19252 0.32951,0.46469 0.8618,0.69704 1.59687,0.69704 0.75195,0 1.57573,-0.20277 2.47133,-0.60833 0.90404,-0.40555 1.56729,-0.76041 1.98975,-1.06457 -1e-5,-0.10139 0.004,-0.56608 0.0127,-1.39409 0.008,-0.83645 0.0127,-1.87568 0.0127,-3.11769 -1e-5,-0.88713 -0.0127,-1.94748 -0.038,-3.18105 -0.0169,-1.24199 -0.0254,-1.91791 -0.0253,-2.02776 l 2.00241,0 c -1e-5,0.14364 -0.008,0.62101 -0.0254,1.43211 -0.0169,0.80266 -0.0254,2.17563 -0.0253,4.11889 -2e-5,1.08993 0.004,2.04889 0.0127,2.87689 0.008,0.81956 0.0211,2.28546 0.038,4.39771"
           inkscape:connector-curvature="0" />
        <path
           id="path4154"
           style="fill:#ffffff;stroke:#ffffff"
           d="m 180.84299,206.78316 c -2e-5,1.38564 -0.3422,2.57695 -1.02656,3.57393 -0.67593,0.99699 -1.59265,1.7405 -2.75015,2.23054 -0.75197,0.32106 -1.60955,0.55764 -2.57273,0.70972 -0.96319,0.14363 -2.1207,0.21545 -3.47254,0.21545 -0.18588,0 -0.37598,0 -0.57031,0 -0.19433,0 -0.38021,0 -0.55763,0 0.008,-0.65058 0.0169,-1.85878 0.0253,-3.62463 0.0169,-1.76584 0.0254,-3.89076 0.0254,-6.37478 0,-1.52081 -0.004,-2.99516 -0.0127,-4.42306 -0.008,-1.42786 -0.0211,-2.88532 -0.038,-4.37236 l 2.00241,0 -0.038,5.84249 c 1.73204,0.0169 3.11768,0.17322 4.15692,0.46892 1.04766,0.28728 1.91791,0.68016 2.61074,1.17864 0.71815,0.5154 1.26734,1.16175 1.64756,1.93905 0.38019,0.76887 0.57029,1.64756 0.57031,2.63609 m -2.02777,0.0507 c -10e-6,-1.02232 -0.2915,-1.87989 -0.87447,-2.57272 -0.57454,-0.69281 -1.31805,-1.19553 -2.23054,-1.50815 -0.47315,-0.16052 -0.98432,-0.28303 -1.53349,-0.36753 -0.5492,-0.0929 -1.11528,-0.1394 -1.69826,-0.13941 -0.10984,1e-5 -0.2239,1e-5 -0.34218,0 -0.10984,1e-5 -0.20278,1e-5 -0.27882,0 0,0.18589 -0.004,0.86181 -0.0127,2.02776 -10e-6,1.15753 -10e-6,2.11226 0,2.86422 -10e-6,1.41099 0.004,2.40797 0.0127,2.99095 0.008,0.58298 0.0127,1.17441 0.0127,1.77429 0.92939,0 1.77852,-0.0676 2.54738,-0.20278 0.76885,-0.14363 1.4321,-0.3633 1.98974,-0.65902 0.8111,-0.4309 1.4152,-0.99698 1.81232,-1.69825 0.39709,-0.70971 0.59564,-1.54616 0.59565,-2.50936"
           inkscape:connector-curvature="0" />
        <path
           id="path4156"
           style="fill:#ffffff;stroke:#ffffff"
           d="m 191.26062,209.58401 c -10e-6,0.62523 -0.15209,1.18286 -0.45625,1.6729 -0.30417,0.49005 -0.70128,0.88715 -1.19131,1.19131 -0.5154,0.32107 -1.12795,0.56609 -1.83766,0.73507 -0.70127,0.16053 -1.47858,0.24079 -2.33193,0.24079 -0.414,0 -0.8449,-0.0211 -1.2927,-0.0634 -0.43935,-0.0338 -0.68859,-0.0549 -0.74773,-0.0634 l -0.0761,-1.66023 c 0.076,0.008 0.36753,0.0338 0.87448,0.076 0.51538,0.0338 1.02655,0.0507 1.53349,0.0507 0.29571,0 0.67592,-0.0253 1.14062,-0.076 0.46469,-0.0507 0.84912,-0.14363 1.15329,-0.27882 0.42244,-0.18587 0.73506,-0.414 0.93784,-0.68437 0.20277,-0.27036 0.30416,-0.59565 0.30416,-0.97586 0,-0.3464 -0.0887,-0.62522 -0.26614,-0.83645 -0.17744,-0.21967 -0.42246,-0.43089 -0.73506,-0.63367 -0.33797,-0.22812 -0.80267,-0.46892 -1.39409,-0.7224 -0.58299,-0.26191 -1.07303,-0.51115 -1.47013,-0.74773 -0.56609,-0.34641 -1.00121,-0.75618 -1.30537,-1.22933 -0.29572,-0.47314 -0.44358,-1.02233 -0.44357,-1.64756 -1e-5,-0.62522 0.16897,-1.18708 0.50694,-1.68558 0.3464,-0.49848 0.80687,-0.89981 1.38141,-1.20398 0.49849,-0.27036 1.04767,-0.44779 1.64756,-0.53229 0.60832,-0.0929 1.19553,-0.1394 1.76162,-0.13941 0.51538,1e-5 0.93783,0.008 1.26735,0.0254 0.3295,0.0169 0.5196,0.0254 0.57031,0.0253 l 0.13941,1.68558 c -0.0592,1e-5 -0.32108,-0.0169 -0.78576,-0.0507 -0.45626,-0.0338 -0.95897,-0.0507 -1.50815,-0.0507 -0.38866,2e-5 -0.76042,0.0338 -1.11527,0.10139 -0.34642,0.0676 -0.64213,0.16477 -0.88715,0.29149 -0.36331,0.18589 -0.62523,0.40979 -0.78576,0.6717 -0.15208,0.26193 -0.22812,0.5154 -0.22812,0.76041 0,0.33797 0.10983,0.62946 0.32951,0.87447 0.21967,0.24503 0.47737,0.45203 0.77309,0.62101 0.3464,0.20278 0.81955,0.44358 1.41943,0.72239 0.59987,0.27882 1.035,0.50272 1.30537,0.67169 0.59143,0.37177 1.03922,0.78577 1.3434,1.24201 0.3126,0.45625 0.46891,0.99698 0.46892,1.62221"
           inkscape:connector-curvature="0" />
        <path
           id="path4158"
           style="fill:#ffffff;stroke:#ffffff"
           d="m 203.28779,211.64979 -0.15209,1.69825 c -0.0676,0 -0.17743,0 -0.32951,0 -0.14364,0 -0.26615,0 -0.36753,0 -1.08993,0 -2.10803,-0.10139 -3.05432,-0.30416 -0.94629,-0.21123 -1.79542,-0.51962 -2.54737,-0.92517 -1.02234,-0.55763 -1.82077,-1.29692 -2.3953,-2.21786 -0.57453,-0.92094 -0.8618,-1.9475 -0.8618,-3.07967 0,-1.01387 0.26192,-1.94326 0.78576,-2.78817 0.52384,-0.85334 1.20821,-1.55039 2.05311,-2.09113 0.76041,-0.49003 1.66867,-0.86179 2.72481,-1.11527 1.06456,-0.26191 2.16293,-0.39287 3.29511,-0.39288 0.0929,1e-5 0.18587,1e-5 0.27882,0 0.10138,1e-5 0.18164,1e-5 0.2408,0 l 0.10138,1.69825 c -0.0592,1e-5 -0.12674,1e-5 -0.20277,0 -0.0676,1e-5 -0.13097,1e-5 -0.19011,0 -0.93784,1e-5 -1.7405,0.0591 -2.40796,0.17743 -0.65903,0.10985 -1.30116,0.29572 -1.92638,0.55763 -0.83646,0.33797 -1.4997,0.87026 -1.98974,1.59687 -0.49005,0.72662 -0.73507,1.50393 -0.73506,2.33192 -1e-5,0.98854 0.22812,1.82077 0.68437,2.49669 0.46469,0.66747 1.07724,1.18286 1.83766,1.54617 0.59142,0.28726 1.25889,0.49426 2.00241,0.621 0.74351,0.12673 1.52926,0.1901 2.35728,0.1901 0.13517,0 0.28725,0 0.45624,0 0.16897,0 0.28303,0 0.34219,0"
           inkscape:connector-curvature="0" />
        <path
           id="path4160"
           style="fill:#ffffff;stroke:#ffffff"
           d="m 214.06027,201.96722 c -0.4647,0.10985 -1.17864,0.3422 -2.14182,0.69705 -0.95475,0.35487 -2.05734,0.82801 -3.30779,1.41943 0,0.093 -0.004,0.51962 -0.0127,1.28003 -0.008,0.75197 -0.0127,1.45323 -0.0127,2.1038 0,0.99699 0.008,2.17985 0.0254,3.54858 0.0253,1.36875 0.038,2.12916 0.038,2.28124 l -2.00242,0 c 0,-0.14364 0.008,-0.61678 0.0253,-1.41944 0.0169,-0.80265 0.0254,-2.17561 0.0254,-4.11889 0,-0.78575 -0.004,-1.88412 -0.0127,-3.29511 -0.008,-1.41098 -0.0211,-2.7417 -0.038,-3.99216 l 1.9644,0 0,1.92637 0.0127,0.0127 c 0.95474,-0.54073 1.8968,-1.00965 2.8262,-1.40676 0.92938,-0.39709 1.67289,-0.66746 2.23054,-0.81111 l 0.3802,1.77429"
           inkscape:connector-curvature="0" />
        <path
           id="path4162"
           style="fill:#ffffff;stroke:#ffffff"
           d="m 218.88888,198.01309 -2.23054,0 0,-2.17985 2.23054,0 0,2.17985 m -0.11406,15.28426 -2.00241,0 c 0.008,-0.13519 0.0169,-0.96741 0.0253,-2.49668 0.0169,-1.52927 0.0254,-2.7924 0.0254,-3.78939 0,-0.87024 -0.004,-1.82498 -0.0127,-2.86421 -1e-5,-1.04767 -0.0127,-2.27277 -0.038,-3.67532 l 2.00241,0 c -0.0169,1.21667 -0.0338,2.35728 -0.0507,3.42185 -0.008,1.05613 -0.0127,1.9982 -0.0127,2.82619 0,1.96863 0.008,3.54859 0.0253,4.7399 0.0253,1.19131 0.038,1.80386 0.038,1.83766"
           inkscape:connector-curvature="0" />
        <path
           id="path4164"
           style="fill:#ffffff;stroke:#ffffff"
           d="m 234.47731,206.78316 c -10e-6,1.38564 -0.3422,2.57695 -1.02655,3.57393 -0.67594,0.99699 -1.59265,1.7405 -2.75016,2.23054 -0.75197,0.32106 -1.60954,0.55764 -2.57272,0.70972 -0.9632,0.14363 -2.12071,0.21545 -3.47255,0.21545 -0.18588,0 -0.37598,0 -0.5703,0 -0.19433,0 -0.38021,0 -0.55764,0 0.008,-0.65058 0.0169,-1.85878 0.0254,-3.62463 0.0169,-1.76584 0.0253,-3.89076 0.0254,-6.37478 -1e-5,-1.52081 -0.004,-2.99516 -0.0127,-4.42306 -0.008,-1.42786 -0.0211,-2.88532 -0.038,-4.37236 l 2.00242,0 -0.038,5.84249 c 1.73204,0.0169 3.11767,0.17322 4.15691,0.46892 1.04767,0.28728 1.91792,0.68016 2.61074,1.17864 0.71816,0.5154 1.26734,1.16175 1.64756,1.93905 0.38019,0.76887 0.5703,1.64756 0.57031,2.63609 m -2.02776,0.0507 c -1e-5,-1.02232 -0.2915,-1.87989 -0.87448,-2.57272 -0.57454,-0.69281 -1.31805,-1.19553 -2.23053,-1.50815 -0.47316,-0.16052 -0.98432,-0.28303 -1.5335,-0.36753 -0.54919,-0.0929 -1.11527,-0.1394 -1.69825,-0.13941 -0.10984,1e-5 -0.2239,1e-5 -0.34219,0 -0.10984,1e-5 -0.20278,1e-5 -0.27881,0 -1e-5,0.18589 -0.004,0.86181 -0.0127,2.02776 0,1.15753 0,2.11226 0,2.86422 0,1.41099 0.004,2.40797 0.0127,2.99095 0.008,0.58298 0.0127,1.17441 0.0127,1.77429 0.92939,0 1.77851,-0.0676 2.54738,-0.20278 0.76885,-0.14363 1.4321,-0.3633 1.98974,-0.65902 0.81109,-0.4309 1.4152,-0.99698 1.81231,-1.69825 0.39709,-0.70971 0.59565,-1.54616 0.59566,-2.50936"
           inkscape:connector-curvature="0" />
        <path
           id="path4166"
           style="fill:#ffffff;stroke:#ffffff"
           d="m 247.80985,206.41563 -9.16295,0 c 0.008,0.8956 0.19855,1.71938 0.57031,2.47133 0.37175,0.74352 0.94206,1.3603 1.71092,1.85034 0.49004,0.31261 1.04767,0.54919 1.67291,0.70971 0.62522,0.15209 1.37718,0.22813 2.25588,0.22813 0.48159,0 0.92094,-0.0127 1.31805,-0.038 0.40554,-0.0254 0.65479,-0.0423 0.74774,-0.0507 l -0.22813,1.68558 c -0.0676,0.008 -0.2915,0.0211 -0.67169,0.038 -0.38022,0.0254 -0.82802,0.038 -1.3434,0.038 -1.35185,0 -2.53048,-0.1732 -3.53591,-0.51961 -0.99699,-0.35486 -1.81654,-0.84068 -2.45866,-1.45746 -0.54919,-0.51538 -1.01811,-1.17441 -1.40676,-1.97707 -0.38021,-0.80265 -0.57031,-1.69402 -0.57031,-2.67411 0,-0.96318 0.14363,-1.83342 0.4309,-2.61074 0.28727,-0.7773 0.71816,-1.49969 1.2927,-2.16717 0.49849,-0.57452 1.11527,-1.0181 1.85033,-1.33072 0.74351,-0.3126 1.51237,-0.46891 2.30658,-0.46892 0.78575,1e-5 1.4828,0.1183 2.09113,0.35486 0.60832,0.23658 1.13639,0.59566 1.58419,1.07724 0.49848,0.54075 0.87869,1.20822 1.14062,2.00242 0.26191,0.78577 0.39709,1.73206 0.40555,2.83887 m -1.96439,-1.41944 c -0.1352,-1.04766 -0.49428,-1.86722 -1.07725,-2.45866 -0.57454,-0.59987 -1.33495,-0.89981 -2.28123,-0.89982 -0.9463,1e-5 -1.73628,0.30418 -2.36995,0.9125 -0.63368,0.59989 -1.07303,1.41521 -1.31805,2.44598 l 7.04648,0"
           inkscape:connector-curvature="0" />
        <path
           id="path4168"
           style="fill:#ffffff;stroke:#ffffff"
           d="m 272.87807,196.32751 c -0.0169,1.32651 -0.0338,2.8431 -0.0507,4.54979 -0.008,1.70671 -0.0127,2.93604 -0.0127,3.68799 -10e-6,2.39953 0.008,4.309 0.0254,5.72843 0.0169,1.41099 0.0253,2.16295 0.0254,2.25589 l -1.68558,0.82378 c -2.55162,-3.44719 -4.93846,-6.55643 -7.16054,-9.32771 -2.21365,-2.77971 -3.49367,-4.38502 -3.84007,-4.81594 l -0.0254,0.0127 c -1e-5,2.26434 0.0127,5.04829 0.038,8.35185 0.0338,3.29511 0.0549,5.19614 0.0634,5.70308 l -1.97707,0 c 0.008,-0.21123 0.0211,-0.96319 0.038,-2.25589 0.0169,-1.29269 0.0253,-3.09233 0.0254,-5.39892 -10e-6,-0.92093 -0.004,-2.14181 -0.0127,-3.66264 -0.008,-1.52926 -0.0254,-3.14725 -0.0507,-4.85396 l 1.92637,-0.91249 c 0.15208,0.19434 1.44478,1.83767 3.8781,4.92999 2.44175,3.09235 4.73988,5.96501 6.89439,8.618 l 0.0254,-0.0127 c -2e-5,-1.30114 -0.0169,-3.48943 -0.0507,-6.56488 -0.0338,-3.08388 -0.0507,-5.36933 -0.0507,-6.85637 l 1.97707,0"
           inkscape:connector-curvature="0" />
        <path
           id="path4170"
           style="fill:#ffffff;stroke:#ffffff"
           d="m 289.44236,206.88455 c -1e-5,0.98009 -0.17744,1.91793 -0.53228,2.81352 -0.34643,0.8956 -0.84914,1.66023 -1.50815,2.29391 -0.55765,0.53228 -1.17865,0.93784 -1.86301,1.21665 -0.67593,0.27882 -1.44479,0.41823 -2.30658,0.41823 -0.81111,0 -1.57152,-0.13518 -2.28123,-0.40555 -0.70972,-0.27882 -1.3434,-0.68437 -1.90103,-1.21666 -0.64213,-0.61678 -1.14062,-1.37719 -1.49547,-2.28123 -0.34642,-0.90404 -0.51962,-1.85878 -0.51962,-2.86422 0,-0.97163 0.14786,-1.863 0.44357,-2.67411 0.30417,-0.81955 0.77309,-1.55461 1.40676,-2.20519 0.56608,-0.59142 1.22511,-1.04344 1.97707,-1.35607 0.75196,-0.32105 1.54617,-0.48158 2.38262,-0.48159 0.87869,1e-5 1.6729,0.14787 2.38263,0.44357 0.71815,0.28728 1.35605,0.7224 1.9137,1.30537 0.64211,0.66748 1.11948,1.41945 1.4321,2.25589 0.3126,0.82801 0.46891,1.7405 0.46892,2.73748 m -2.02776,0.0887 c -1e-5,-0.7942 -0.13097,-1.56728 -0.39288,-2.31925 -0.25348,-0.75195 -0.65058,-1.38563 -1.19131,-1.90103 -0.32952,-0.32105 -0.7224,-0.56607 -1.17863,-0.73506 -0.44781,-0.17742 -0.91673,-0.26614 -1.40677,-0.26615 -0.58298,1e-5 -1.08992,0.093 -1.52082,0.27882 -0.4309,0.18589 -0.83645,0.47738 -1.21666,0.87447 -0.4478,0.45626 -0.80266,1.03924 -1.06457,1.74895 -0.25347,0.70972 -0.38021,1.44479 -0.38021,2.20519 0,0.86181 0.13096,1.65601 0.39288,2.38262 0.26192,0.71817 0.68437,1.33917 1.26735,1.86301 0.32951,0.29572 0.70972,0.52384 1.14062,0.68437 0.43089,0.15208 0.88714,0.22812 1.36874,0.22812 0.53228,0 1.02655,-0.0929 1.4828,-0.27881 0.46469,-0.18588 0.87024,-0.45625 1.21666,-0.81111 0.48158,-0.49004 0.84912,-1.08147 1.1026,-1.77429 0.25346,-0.69282 0.38019,-1.41943 0.3802,-2.17985"
           inkscape:connector-curvature="0" />
        <path
           id="path4172"
           style="fill:#ffffff;stroke:#ffffff"
           d="m 310.75922,200.96602 c -1.14064,2.78818 -2.18832,5.51721 -3.14304,8.18709 -0.95475,2.66989 -1.44902,4.0513 -1.4828,4.14424 l -1.55884,0 c -0.0254,-0.076 -0.36755,-1.07303 -1.02656,-2.99095 -0.65058,-1.91792 -1.45746,-4.21183 -2.42064,-6.88172 l -0.0254,0 c -0.84491,2.23899 -1.66868,4.42729 -2.47133,6.56488 -0.80266,2.1376 -1.21667,3.2402 -1.24201,3.30779 l -1.55884,0 c -0.0591,-0.23657 -0.51962,-1.56307 -1.38141,-3.97949 -0.8618,-2.41641 -1.89681,-5.17501 -3.10501,-8.2758 l 1.85033,-0.82378 3.49789,10.39228 0.0253,0 3.70066,-9.92336 1.58419,0 3.40918,9.92336 0.0253,0 3.5866,-10.34159 1.73628,0.69705"
           inkscape:connector-curvature="0" />
        <path
           id="path4174"
           style="fill:#ffffff;stroke:#ffffff"
           d="m 318.68017,196.32751 c -0.0507,4.46954 -0.0972,7.40979 -0.13941,8.82077 -0.0338,1.40254 -0.0549,2.26011 -0.0634,2.57272 l -1.76162,0 c -0.008,-0.31261 -0.0338,-1.17018 -0.076,-2.57272 -0.0422,-1.41098 -0.0887,-4.35123 -0.13941,-8.82077 l 2.17985,0 m 0.13941,16.96984 -2.44599,0 0,-2.54738 2.44599,0 0,2.54738"
           inkscape:connector-curvature="0" />
      </g>
      <g
         inkscape:export-ydpi="79.540001"
         inkscape:export-xdpi="79.540001"
         inkscape:export-filename="/Users/rudy/Dropbox/web/tdchannel/web/public/images/TDC1/subscribeNow.png"
         transform="matrix(0.91288536,-0.40821602,0.40821602,0.91288536,-186.89468,178.22211)"
         id="g3931">
        <path
           sodipodi:type="star"
           style="fill:url(#radialGradient4250);fill-opacity:1;stroke:#ff7225;stroke-width:1.39999998;stroke-linecap:round;stroke-linejoin:round;stroke-miterlimit:4;stroke-opacity:1;stroke-dasharray:none;stroke-dashoffset:0;filter:url(#filter3917)"
           id="path2991"
           sodipodi:sides="20"
           sodipodi:cx="-12.296564"
           sodipodi:cy="214.74916"
           sodipodi:r1="42.923641"
           sodipodi:r2="50.498402"
           sodipodi:arg1="0.66355573"
           sodipodi:arg2="0.82063536"
           inkscape:flatsided="false"
           inkscape:rounded="0"
           inkscape:randomized="0"
           d="m 21.518988,241.18677 0.612063,10.50597 -10.436786,-1.35033 -2.6644147,10.1809 -9.50869751,-4.50939 -5.68008109,8.85927 -7.6498317,-7.22703 -8.139741,6.67042 -5.042148,-9.23725 -9.802627,3.82863 -1.940902,-10.34325 -10.505963,0.61207 1.350332,-10.43679 -10.180903,-2.66441 4.509386,-9.5087 -8.859264,-5.68008 7.22703,-7.64984 -6.67042,-8.13974 9.237243,-5.04214 -3.828628,-9.80263 10.343249,-1.9409 -0.612063,-10.50597 10.436786,1.35034 2.664414,-10.18091 9.508698,4.50939 5.680081,-8.85927 7.649832,7.22704 8.1397413,-6.67042 5.042147,9.23724 9.8026277,-3.82863 1.940902,10.34325 10.505963,-0.61206 -1.350332,10.43678 10.180903,2.66442 -4.509387,9.50869 8.859265,5.68008 -7.22703,7.64984 6.670419,8.13974 -9.237242,5.04215 3.828628,9.80262 z"
           transform="translate(352.98373,232.18807)" />
        <text
           xml:space="preserve"
           style="font-size:22.81224632px;font-style:normal;font-weight:normal;line-height:125%;letter-spacing:0px;word-spacing:0px;fill:#ffffff;fill-opacity:1;stroke:none;filter:url(#filter3917);font-family:Sans"
           x="339.81995"
           y="438.74728"
           id="text2993"
           sodipodi:linespacing="125%"><tspan
             sodipodi:role="line"
             id="tspan2995"
             x="339.81995"
             y="438.74728"
             style="text-align:center;text-anchor:middle;fill:#ffffff">Best</tspan><tspan
             sodipodi:role="line"
             x="339.81995"
             y="467.2626"
             id="tspan2997"
             style="text-align:center;text-anchor:middle;fill:#ffffff">Value</tspan></text>
      </g>
      <g
         id="text3971"
         style="font-size:40px;font-style:normal;font-weight:normal;line-height:125%;letter-spacing:0px;word-spacing:0px;fill:#ffffff;fill-opacity:1;stroke:none;filter:url(#filter3917);font-family:Sans">
        <path
           id="path4063"
           style="fill:#ffffff"
           d="m 157.45776,467.28265 -1.95312,0 -0.0195,-5.8789 c -1.3672,-0.026 -2.73439,-0.18229 -4.10157,-0.46875 -1.36719,-0.29948 -2.74089,-0.74219 -4.12109,-1.32813 l 0,-3.51562 c 1.32812,0.83334 2.66927,1.46485 4.02344,1.89453 1.36718,0.41667 2.77343,0.63151 4.21875,0.64453 l 0,-8.90625 c -2.87761,-0.46874 -4.97397,-1.26301 -6.28906,-2.38281 -1.30209,-1.11978 -1.95313,-2.65624 -1.95313,-4.60938 0,-2.12237 0.70963,-3.79555 2.12891,-5.01953 1.41926,-1.22393 3.45702,-1.92706 6.11328,-2.10937 l 0,-4.58985 1.95312,0 0,4.53125 c 1.21093,0.0521 2.3828,0.18232 3.51563,0.39063 1.13279,0.19534 2.23956,0.46877 3.32031,0.82031 l 0,3.41797 c -1.08075,-0.54685 -2.19403,-0.97003 -3.33984,-1.26953 -1.13283,-0.29946 -2.29819,-0.47524 -3.4961,-0.52735 l 0,8.33985 c 2.95572,0.45574 5.13019,1.26954 6.52344,2.4414 1.39321,1.17189 2.08982,2.77345 2.08984,4.80469 -2e-5,2.20053 -0.7422,3.93881 -2.22656,5.21485 -1.47137,1.26302 -3.60027,1.99218 -6.38672,2.1875 l 0,5.91796 m -1.95312,-20.91796 0,-8.00782 c -1.51043,0.1693 -2.66277,0.59898 -3.45703,1.28907 -0.79428,0.69012 -1.19142,1.60809 -1.19141,2.7539 -1e-5,1.11981 0.36458,1.99221 1.09375,2.61719 0.74218,0.62501 1.92707,1.07423 3.55469,1.34766 m 1.95312,3.75 0,8.45703 c 1.65363,-0.22135 2.89712,-0.6901 3.73047,-1.40625 0.84634,-0.71614 1.26952,-1.66015 1.26953,-2.83203 -10e-6,-1.14583 -0.40366,-2.05729 -1.21093,-2.73438 -0.79429,-0.67707 -2.05731,-1.17186 -3.78907,-1.48437"
           inkscape:connector-curvature="0" />
        <path
           id="path4065"
           style="fill:#ffffff"
           d="m 174.37183,458.08344 6.44531,0 0,-22.2461 -7.01172,1.40625 0,-3.59375 6.97266,-1.40625 3.94531,0 0,25.83985 6.44531,0 0,3.32031 -16.79687,0 0,-3.32031"
           inkscape:connector-curvature="0" />
        <path
           id="path4067"
           style="fill:#ffffff"
           d="m 208.08276,445.2514 c -1.77084,2e-5 -3.17709,0.60549 -4.21875,1.81641 -1.02865,1.21095 -1.54297,2.87111 -1.54297,4.98047 0,2.09636 0.51432,3.75651 1.54297,4.98047 1.04166,1.21094 2.44791,1.81641 4.21875,1.8164 1.77082,1e-5 3.17056,-0.60546 4.19922,-1.8164 1.04165,-1.22396 1.56248,-2.88411 1.5625,-4.98047 -2e-5,-2.10936 -0.52085,-3.76952 -1.5625,-4.98047 -1.02866,-1.21092 -2.4284,-1.81639 -4.19922,-1.81641 m 7.83203,-12.36328 0,3.59375 c -0.9896,-0.46872 -1.9922,-0.82679 -3.00781,-1.07422 -1.00262,-0.24737 -1.99871,-0.37106 -2.98828,-0.37109 -2.60418,3e-5 -4.59636,0.87893 -5.97656,2.63672 -1.3672,1.75783 -2.14845,4.41408 -2.34375,7.96875 0.76822,-1.1328 1.73176,-1.99868 2.89062,-2.59766 1.15885,-0.61196 2.43489,-0.91795 3.82813,-0.91797 2.92967,2e-5 5.24087,0.89195 6.93359,2.67579 1.70571,1.77084 2.55857,4.18621 2.5586,7.24609 -3e-5,2.9948 -0.88544,5.39714 -2.65625,7.20703 -1.77086,1.8099 -4.12762,2.71484 -7.07032,2.71484 -3.3724,0 -5.95052,-1.28906 -7.73437,-3.86718 -1.78386,-2.59114 -2.67579,-6.34114 -2.67578,-11.25 -1e-5,-4.60936 1.09374,-8.28123 3.28125,-11.01563 2.18749,-2.74737 5.12368,-4.12106 8.80859,-4.12109 0.98957,3e-5 1.98566,0.0977 2.98828,0.29297 1.01561,0.19534 2.07029,0.48831 3.16406,0.8789"
           inkscape:connector-curvature="0" />
        <path
           id="path4069"
           style="fill:#ffffff"
           d="m 233.06323,434.84125 c -2.03126,2e-5 -3.5612,1.00263 -4.58984,3.00781 -1.01563,1.99221 -1.52345,4.99351 -1.52344,9.00391 -1e-5,3.9974 0.50781,6.9987 1.52344,9.0039 1.02864,1.99219 2.55858,2.98829 4.58984,2.98828 2.04426,1e-5 3.5742,-0.99609 4.58985,-2.98828 1.02862,-2.0052 1.54295,-5.0065 1.54296,-9.0039 -1e-5,-4.0104 -0.51434,-7.0117 -1.54296,-9.00391 -1.01565,-2.00518 -2.54559,-3.00779 -4.58985,-3.00781 m 0,-3.125 c 3.26822,3e-5 5.7617,1.2956 7.48047,3.88672 1.73175,2.57814 2.59763,6.32814 2.59766,11.25 -3e-5,4.90886 -0.86591,8.65886 -2.59766,11.25 -1.71877,2.57812 -4.21225,3.86718 -7.48047,3.86718 -3.26824,0 -5.76823,-1.28906 -7.5,-3.86718 -1.71875,-2.59114 -2.57813,-6.34114 -2.57812,-11.25 -1e-5,-4.92186 0.85937,-8.67186 2.57812,-11.25 1.73177,-2.59112 4.23176,-3.88669 7.5,-3.88672"
           inkscape:connector-curvature="0" />
      </g>
      <g
         id="text4001"
         style="font-size:23.24778557px;font-style:normal;font-weight:normal;line-height:125%;letter-spacing:0px;word-spacing:0px;fill:#ffffff;fill-opacity:1;stroke:none;filter:url(#filter3917);font-family:Sans">
        <path
           id="path4083"
           d="m 149.84963,356.98606 c -1.02921,10e-6 -1.84651,0.35191 -2.45192,1.05569 -0.59785,0.7038 -0.89677,1.66867 -0.89676,2.89462 -10e-6,1.21839 0.29891,2.18327 0.89676,2.89462 0.60541,0.70379 1.42271,1.05569 2.45192,1.05569 1.02919,0 1.84271,-0.3519 2.44056,-1.05569 0.6054,-0.71135 0.90811,-1.67623 0.90812,-2.89462 -1e-5,-1.22595 -0.30272,-2.19082 -0.90812,-2.89462 -0.59785,-0.70378 -1.41137,-1.05568 -2.44056,-1.05569 m 4.55193,-7.18547 0,2.08867 c -0.57515,-0.27242 -1.15786,-0.48053 -1.74812,-0.62433 -0.58272,-0.14377 -1.16165,-0.21566 -1.73678,-0.21568 -1.51353,2e-5 -2.67138,0.51083 -3.47354,1.53245 -0.79461,1.02164 -1.24867,2.56544 -1.36218,4.63139 0.44649,-0.65837 1.00649,-1.16162 1.68002,-1.50974 0.67351,-0.35567 1.41514,-0.53351 2.22488,-0.53352 1.70271,1e-5 3.04597,0.51839 4.02977,1.55515 0.99135,1.02921 1.48703,2.433 1.48704,4.21139 -10e-6,1.74056 -0.51461,3.13679 -1.5438,4.18869 -1.02921,1.0519 -2.39895,1.57785 -4.10922,1.57785 -1.96003,0 -3.45842,-0.7492 -4.49518,-2.24759 -1.03677,-1.50595 -1.55515,-3.68543 -1.55515,-6.53844 0,-2.67893 0.63568,-4.813 1.90704,-6.40222 1.27136,-1.59676 2.97786,-2.39514 5.11951,-2.39516 0.57513,2e-5 1.15406,0.0568 1.73677,0.17027 0.59027,0.11354 1.20325,0.28381 1.83894,0.51082"
           inkscape:connector-curvature="0" />
        <path
           id="path4085"
           d="m 176.4688,356.10065 c 0.52215,-0.93838 1.14648,-1.63082 1.87299,-2.07732 0.72648,-0.44648 1.58162,-0.66972 2.56543,-0.66973 1.32432,1e-5 2.34595,0.46542 3.06489,1.39623 0.71891,0.92326 1.07837,2.24003 1.07839,3.9503 l 0,7.67359 -2.10002,0 0,-7.60548 c -2e-5,-1.21838 -0.2157,-2.12271 -0.64703,-2.713 -0.43138,-0.59026 -1.08976,-0.8854 -1.97516,-0.88541 -1.08219,1e-5 -1.93733,0.35947 -2.56543,1.07839 -0.62812,0.71893 -0.94218,1.69894 -0.94217,2.94003 l 0,7.18547 -2.10002,0 0,-7.60548 c -1e-5,-1.22595 -0.21569,-2.13028 -0.64703,-2.713 -0.43137,-0.59026 -1.09732,-0.8854 -1.99786,-0.88541 -1.06704,1e-5 -1.91462,0.36326 -2.54272,1.08974 -0.62812,0.71893 -0.94218,1.69516 -0.94218,2.92868 l 0,7.18547 -2.10002,0 0,-12.71363 2.10002,0 0,1.97515 c 0.47676,-0.77946 1.04812,-1.3546 1.71407,-1.72542 0.66595,-0.3708 1.45677,-0.55621 2.37246,-0.55622 0.92324,1e-5 1.70649,0.23461 2.34975,0.70379 0.65081,0.4692 1.13135,1.15029 1.44164,2.04326"
           inkscape:connector-curvature="0" />
        <path
           id="path4087"
           d="m 194.15437,355.12442 c -1.12002,1e-5 -2.00543,0.43894 -2.65624,1.31677 -0.65083,0.87029 -0.97623,2.06598 -0.97623,3.58706 0,1.5211 0.32162,2.72057 0.96487,3.59842 0.65082,0.87028 1.54001,1.30541 2.6676,1.30541 1.11243,0 1.99406,-0.43892 2.64489,-1.31677 0.6508,-0.87784 0.97621,-2.07352 0.97622,-3.58706 -10e-6,-1.50595 -0.32542,-2.69785 -0.97622,-3.57571 -0.65083,-0.8854 -1.53246,-1.32811 -2.64489,-1.32812 m 0,-1.77082 c 1.81622,1e-5 3.24272,0.59028 4.2795,1.77082 1.03675,1.18057 1.55513,2.81517 1.55515,4.90383 -2e-5,2.08111 -0.5184,3.71572 -1.55515,4.90383 -1.03678,1.18055 -2.46328,1.77083 -4.2795,1.77083 -1.82381,0 -3.25409,-0.59028 -4.29085,-1.77083 -1.02921,-1.18811 -1.5438,-2.82272 -1.5438,-4.90383 0,-2.08866 0.51459,-3.72326 1.5438,-4.90383 1.03676,-1.18054 2.46704,-1.77081 4.29085,-1.77082"
           inkscape:connector-curvature="0" />
        <path
           id="path4089"
           d="m 214.00807,358.70013 0,7.67359 -2.08867,0 0,-7.60548 c -1e-5,-1.20324 -0.23461,-2.10379 -0.70379,-2.70165 -0.46921,-0.59783 -1.173,-0.89675 -2.11137,-0.89676 -1.12759,1e-5 -2.01679,0.35947 -2.6676,1.07839 -0.65082,0.71893 -0.97623,1.69894 -0.97622,2.94003 l 0,7.18547 -2.10002,0 0,-12.71363 2.10002,0 0,1.97515 c 0.49946,-0.76432 1.08595,-1.33568 1.75947,-1.71407 0.68108,-0.37837 1.46433,-0.56756 2.34976,-0.56757 1.46054,1e-5 2.56541,0.45407 3.31462,1.36217 0.74919,0.90056 1.12378,2.22868 1.1238,3.98436"
           inkscape:connector-curvature="0" />
        <path
           id="path4091"
           d="m 220.26272,350.05032 0,3.60977 4.3022,0 0,1.62325 -4.3022,0 0,6.90169 c -1e-5,1.03677 0.13999,1.70272 0.42,1.99786 0.28757,0.29514 0.86649,0.44271 1.73677,0.4427 l 2.14543,0 0,1.74813 -2.14543,0 c -1.61191,0 -2.72435,-0.29892 -3.33732,-0.89677 -0.61299,-0.60541 -0.91947,-1.70271 -0.91947,-3.29192 l 0,-6.90169 -1.53245,0 0,-1.62325 1.53245,0 0,-3.60977 2.10002,0"
           inkscape:connector-curvature="0" />
        <path
           id="path4093"
           d="m 237.89153,358.70013 0,7.67359 -2.08867,0 0,-7.60548 c -1e-5,-1.20324 -0.2346,-2.10379 -0.70379,-2.70165 -0.4692,-0.59783 -1.17299,-0.89675 -2.11137,-0.89676 -1.12758,1e-5 -2.01678,0.35947 -2.66759,1.07839 -0.65082,0.71893 -0.97623,1.69894 -0.97623,2.94003 l 0,7.18547 -2.10002,0 0,-17.66287 2.10002,0 0,6.92439 c 0.49946,-0.76432 1.08595,-1.33568 1.75948,-1.71407 0.68108,-0.37837 1.46433,-0.56756 2.34975,-0.56757 1.46055,1e-5 2.56542,0.45407 3.31463,1.36217 0.74918,0.90056 1.12378,2.22868 1.12379,3.98436"
           inkscape:connector-curvature="0" />
        <path
           id="path4095"
           d="m 250.18516,354.03468 0,1.97516 c -0.59028,-0.3027 -1.20326,-0.52973 -1.83893,-0.68109 -0.63569,-0.15134 -1.29408,-0.22702 -1.97516,-0.22703 -1.03677,10e-6 -1.81624,0.15893 -2.3384,0.47676 -0.5146,0.31785 -0.7719,0.79461 -0.7719,1.43029 0,0.48433 0.18541,0.8665 0.55622,1.14649 0.37081,0.27245 1.11623,0.53353 2.23624,0.78325 l 0.71514,0.15892 c 1.48325,0.31785 2.53515,0.76813 3.15571,1.35083 0.6281,0.57514 0.94216,1.3811 0.94217,2.41786 -1e-5,1.18055 -0.46921,2.11515 -1.40758,2.80381 -0.93083,0.68865 -2.21354,1.03298 -3.84815,1.03298 -0.68109,0 -1.39245,-0.0681 -2.13407,-0.20433 -0.73406,-0.12865 -1.50975,-0.3254 -2.32705,-0.59027 l 0,-2.15678 c 0.7719,0.40109 1.53244,0.70379 2.28164,0.90812 0.7492,0.19676 1.49082,0.29514 2.22489,0.29514 0.98379,0 1.74055,-0.16649 2.27029,-0.49947 0.52973,-0.34054 0.79459,-0.8173 0.7946,-1.43028 -1e-5,-0.56757 -0.19298,-1.00271 -0.57892,-1.30542 -0.37839,-0.3027 -1.21461,-0.59405 -2.50867,-0.87406 l -0.7265,-0.17027 c -1.29407,-0.27243 -2.22867,-0.68865 -2.80381,-1.24866 -0.57514,-0.56757 -0.86271,-1.34325 -0.86271,-2.32705 0,-1.19568 0.42379,-2.11893 1.27137,-2.76976 0.84757,-0.6508 2.05082,-0.97621 3.60976,-0.97622 0.77189,1e-5 1.49838,0.0568 2.17948,0.17027 0.68108,0.11353 1.30919,0.2838 1.88434,0.51081"
           inkscape:connector-curvature="0" />
        <path
           id="path4097"
           d="m 260.54904,359.07473 6.11844,0 0,1.86164 -6.11844,0 0,-1.86164"
           inkscape:connector-curvature="0" />
        <path
           id="path4099"
           d="m 283.07033,369.79051 -1.13515,0 -0.0113,-3.41679 c -0.79461,-0.0151 -1.58921,-0.10595 -2.38381,-0.27244 -0.7946,-0.17405 -1.59299,-0.43135 -2.39515,-0.7719 l 0,-2.04326 c 0.77189,0.48433 1.55136,0.85136 2.3384,1.10109 0.79459,0.24217 1.6119,0.36704 2.45191,0.3746 l 0,-5.17626 c -1.67245,-0.27243 -2.89084,-0.73406 -3.65517,-1.38488 -0.75676,-0.65081 -1.13515,-1.54379 -1.13514,-2.67895 -1e-5,-1.23351 0.41243,-2.20595 1.23731,-2.91732 0.82486,-0.71134 2.0092,-1.12 3.553,-1.22596 l 0,-2.66759 1.13515,0 0,2.63354 c 0.70378,0.0303 1.38487,0.10596 2.04326,0.22703 0.65837,0.11353 1.30162,0.27245 1.92975,0.47676 l 0,1.9865 c -0.62813,-0.31782 -1.27516,-0.56377 -1.9411,-0.73784 -0.6584,-0.17404 -1.3357,-0.27621 -2.03191,-0.30649 l 0,4.84707 c 1.71784,0.26488 2.98164,0.73785 3.79138,1.41893 0.80973,0.6811 1.2146,1.61192 1.21461,2.79246 -10e-6,1.27894 -0.43137,2.28922 -1.29407,3.03084 -0.85515,0.73406 -2.09246,1.15785 -3.71192,1.27137 l 0,3.43949 m -1.13515,-12.15741 0,-4.6541 c -0.87785,0.0984 -1.54759,0.34812 -2.00921,0.74919 -0.46163,0.4011 -0.69244,0.93462 -0.69244,1.60056 0,0.65083 0.21189,1.15786 0.63569,1.5211 0.43135,0.36325 1.12,0.62433 2.06596,0.78325 m 1.13515,2.17948 0,4.91518 c 0.96108,-0.12865 1.68379,-0.40109 2.16813,-0.81731 0.49188,-0.41622 0.73783,-0.96487 0.73784,-1.64596 -1e-5,-0.66595 -0.23461,-1.19568 -0.70379,-1.5892 -0.46164,-0.39351 -1.1957,-0.68108 -2.20218,-0.86271"
           inkscape:connector-curvature="0" />
        <path
           id="path4101"
           d="m 297.40722,358.32553 c -1.08974,10e-6 -1.94867,0.29137 -2.57678,0.87407 -0.62055,0.58271 -0.93082,1.38488 -0.93082,2.40651 0,1.02163 0.31027,1.8238 0.93082,2.40651 0.62811,0.5827 1.48704,0.87406 2.57678,0.87406 1.08974,0 1.94866,-0.29136 2.57679,-0.87406 0.6281,-0.59028 0.94216,-1.39245 0.94217,-2.40651 -10e-6,-1.02163 -0.31407,-1.8238 -0.94217,-2.40651 -0.62056,-0.5827 -1.47949,-0.87406 -2.57679,-0.87407 m -2.29299,-0.97622 c -0.9838,-0.24216 -1.75191,-0.7 -2.30435,-1.37353 -0.54487,-0.67351 -0.8173,-1.49459 -0.8173,-2.46326 0,-1.3546 0.48054,-2.42542 1.44163,-3.21247 0.96866,-0.78701 2.29299,-1.18053 3.97301,-1.18055 1.68758,2e-5 3.01191,0.39354 3.97301,1.18055 0.96108,0.78705 1.44163,1.85787 1.44164,3.21247 -10e-6,0.96867 -0.27623,1.78975 -0.82866,2.46326 -0.54488,0.67353 -1.30542,1.13137 -2.28164,1.37353 1.10486,0.25731 1.96379,0.76056 2.57678,1.50974 0.62053,0.74921 0.93081,1.66489 0.93082,2.74706 -1e-5,1.64218 -0.50326,2.90219 -1.50974,3.78003 -0.99894,0.87785 -2.43301,1.31677 -4.30221,1.31677 -1.86921,0 -3.30706,-0.43892 -4.31355,-1.31677 -0.99893,-0.87784 -1.49839,-2.13785 -1.49839,-3.78003 0,-1.08217 0.31027,-1.99785 0.93082,-2.74706 0.62054,-0.74918 1.48325,-1.25243 2.58813,-1.50974 m -0.84001,-3.62112 c 0,0.87786 0.27243,1.56273 0.81731,2.05462 0.55243,0.4919 1.32433,0.73785 2.31569,0.73784 0.98379,1e-5 1.7519,-0.24594 2.30435,-0.73784 0.56,-0.49189 0.84,-1.17676 0.84001,-2.05462 -10e-6,-0.87783 -0.28001,-1.5627 -0.84001,-2.05461 -0.55245,-0.49188 -1.32056,-0.73783 -2.30435,-0.73784 -0.99136,10e-6 -1.76326,0.24596 -2.31569,0.73784 -0.54488,0.49191 -0.81731,1.17678 -0.81731,2.05461"
           inkscape:connector-curvature="0" />
        <path
           id="path4103"
           d="m 312.20953,350.93574 c -1.18056,10e-6 -2.06975,0.58272 -2.66759,1.74812 -0.59028,1.15786 -0.88542,2.9022 -0.88541,5.23302 -10e-6,2.32327 0.29513,4.06761 0.88541,5.23302 0.59784,1.15786 1.48703,1.73678 2.66759,1.73678 1.18811,0 2.07731,-0.57892 2.66759,-1.73678 0.59784,-1.16541 0.89676,-2.90975 0.89677,-5.23302 -10e-6,-2.33082 -0.29893,-4.07516 -0.89677,-5.23302 -0.59028,-1.1654 -1.47948,-1.74811 -2.66759,-1.74812 m 0,-1.81624 c 1.89947,2e-5 3.34867,0.753 4.34761,2.25894 1.00648,1.49841 1.50973,3.67789 1.50974,6.53844 -1e-5,2.85301 -0.50326,5.03249 -1.50974,6.53844 -0.99894,1.49839 -2.44814,2.24759 -4.34761,2.24759 -1.89948,0 -3.35247,-0.7492 -4.35896,-2.24759 -0.99893,-1.50595 -1.49839,-3.68543 -1.49839,-6.53844 0,-2.86055 0.49946,-5.04003 1.49839,-6.53844 1.00649,-1.50594 2.45948,-2.25892 4.35896,-2.25894"
           inkscape:connector-curvature="0" />
      </g>
      <g
         id="text4005"
         style="font-size:22.4500618px;font-style:normal;font-weight:normal;line-height:125%;letter-spacing:0px;word-spacing:0px;fill:#ffffff;fill-opacity:1;stroke:none;filter:url(#filter3917);font-family:Sans">
        <path
           id="path4106"
           d="m 154.25978,303.97162 c 1.05965,0.22656 1.88544,0.69792 2.4774,1.4141 0.59924,0.71618 0.89887,1.60045 0.89888,2.65279 -10e-6,1.61506 -0.55542,2.86472 -1.66622,3.74898 -1.11082,0.88426 -2.68933,1.3264 -4.73556,1.3264 -0.68695,0 -1.39582,-0.0694 -2.12661,-0.20828 -0.72349,-0.13154 -1.47256,-0.33251 -2.2472,-0.60291 l 0,-2.13758 c 0.61387,0.3581 1.2862,0.62849 2.017,0.81119 0.73079,0.1827 1.49447,0.27405 2.29104,0.27405 1.38851,0 2.44451,-0.27405 3.16801,-0.82215 0.73078,-0.54809 1.09618,-1.34466 1.09619,-2.3897 -10e-6,-0.96465 -0.33983,-1.71737 -1.01946,-2.25816 -0.67234,-0.54809 -1.61141,-0.82214 -2.81722,-0.82215 l -1.90738,0 0,-1.81968 1.99507,0 c 1.08888,10e-6 1.92199,-0.21558 2.49933,-0.64676 0.57732,-0.43846 0.86598,-1.06695 0.86599,-1.88545 -1e-5,-0.8404 -0.29963,-1.4835 -0.89888,-1.9293 -0.59195,-0.45308 -1.44333,-0.67963 -2.55413,-0.67964 -0.60657,1e-5 -1.25698,0.0658 -1.95123,0.19731 -0.69426,0.13156 -1.45794,0.33618 -2.29104,0.61387 l 0,-1.97315 c 0.84041,-0.23384 1.62601,-0.40923 2.35681,-0.52617 0.7381,-0.11691 1.43236,-0.17538 2.08277,-0.1754 1.68083,2e-5 3.01088,0.38369 3.99015,1.15101 0.97926,0.76004 1.46889,1.79046 1.4689,3.09127 -1e-5,0.9062 -0.25944,1.67353 -0.7783,2.30201 -0.51887,0.62118 -1.25698,1.05235 -2.21431,1.2935"
           inkscape:connector-curvature="0" />
        <path
           id="path4108"
           d="m 178.26644,302.87543 c 0.50424,-0.90618 1.10714,-1.57485 1.80872,-2.00604 0.70155,-0.43115 1.52735,-0.64674 2.4774,-0.64675 1.27888,10e-6 2.26545,0.44945 2.95972,1.34832 0.69424,0.89158 1.04137,2.16317 1.04139,3.81476 l 0,7.41027 -2.02796,0 0,-7.3445 c -2e-5,-1.17658 -0.2083,-2.04988 -0.62483,-2.61991 -0.41657,-0.57001 -1.05236,-0.85502 -1.90738,-0.85503 -1.04505,1e-5 -1.87085,0.34714 -2.4774,1.04139 -0.60657,0.69426 -0.90985,1.64064 -0.90984,2.83914 l 0,6.93891 -2.02796,0 0,-7.3445 c -1e-5,-1.18388 -0.20829,-2.05718 -0.62483,-2.61991 -0.41656,-0.57001 -1.05966,-0.85502 -1.9293,-0.85503 -1.03043,1e-5 -1.84892,0.35079 -2.45548,1.05235 -0.60656,0.69426 -0.90984,1.63699 -0.90984,2.82818 l 0,6.93891 -2.02796,0 0,-12.27738 2.02796,0 0,1.90738 c 0.4604,-0.75271 1.01215,-1.30811 1.65525,-1.66621 0.6431,-0.35808 1.40678,-0.53713 2.29105,-0.53714 0.89156,10e-6 1.64794,0.22656 2.26912,0.67964 0.62848,0.45311 1.09253,1.11082 1.39217,1.97315"
           inkscape:connector-curvature="0" />
        <path
           id="path4110"
           d="m 195.34515,301.9327 c -1.08158,10e-6 -1.93661,0.42388 -2.56509,1.27159 -0.62849,0.84042 -0.94273,1.99508 -0.94273,3.46397 0,1.46891 0.31058,2.62722 0.93176,3.47494 0.62848,0.84042 1.48717,1.26062 2.57606,1.26062 1.07426,0 1.92564,-0.42386 2.55413,-1.27158 0.62848,-0.84772 0.94272,-2.00238 0.94273,-3.46398 -10e-6,-1.45427 -0.31425,-2.60528 -0.94273,-3.45301 -0.62849,-0.85502 -1.47987,-1.28254 -2.55413,-1.28255 m 0,-1.71006 c 1.7539,10e-6 3.13145,0.57003 4.13265,1.71006 1.00118,1.14006 1.50178,2.71857 1.50179,4.73556 -1e-5,2.0097 -0.50061,3.58822 -1.50179,4.73556 -1.0012,1.14005 -2.37875,1.71007 -4.13265,1.71007 -1.76122,0 -3.14243,-0.57002 -4.14361,-1.71007 -0.99389,-1.14734 -1.49083,-2.72586 -1.49083,-4.73556 0,-2.01699 0.49694,-3.5955 1.49083,-4.73556 1.00118,-1.14003 2.38239,-1.71005 4.14361,-1.71006"
           inkscape:connector-curvature="0" />
        <path
           id="path4112"
           d="m 214.51759,305.38572 0,7.41027 -2.017,0 0,-7.3445 c -10e-6,-1.16196 -0.22655,-2.03161 -0.67964,-2.60895 -0.4531,-0.57731 -1.13274,-0.86598 -2.03892,-0.86599 -1.08889,1e-5 -1.94758,0.34714 -2.57606,1.04139 -0.62849,0.69426 -0.94273,1.64064 -0.94272,2.83914 l 0,6.93891 -2.02796,0 0,-12.27738 2.02796,0 0,1.90738 c 0.48232,-0.73809 1.04868,-1.28984 1.6991,-1.65525 0.65771,-0.36539 1.41408,-0.54809 2.26912,-0.5481 1.41043,10e-6 2.47739,0.43849 3.20089,1.31543 0.72347,0.86966 1.08522,2.15221 1.08523,3.84765"
           inkscape:connector-curvature="0" />
        <path
           id="path4114"
           d="m 220.55762,297.03271 0,3.4859 4.15458,0 0,1.56756 -4.15458,0 0,6.66486 c 0,1.0012 0.13519,1.6443 0.40559,1.9293 0.2777,0.28502 0.83676,0.42752 1.67718,0.42752 l 2.07181,0 0,1.68814 -2.07181,0 c -1.5566,0 -2.63087,-0.28866 -3.22281,-0.86599 -0.59195,-0.58464 -0.88792,-1.64429 -0.88792,-3.17897 l 0,-6.66486 -1.47986,0 0,-1.56756 1.47986,0 0,-3.4859 2.02796,0"
           inkscape:connector-curvature="0" />
        <path
           id="path4116"
           d="m 237.58152,305.38572 0,7.41027 -2.017,0 0,-7.3445 c -10e-6,-1.16196 -0.22656,-2.03161 -0.67964,-2.60895 -0.4531,-0.57731 -1.13274,-0.86598 -2.03892,-0.86599 -1.0889,1e-5 -1.94758,0.34714 -2.57606,1.04139 -0.62849,0.69426 -0.94273,1.64064 -0.94273,2.83914 l 0,6.93891 -2.02796,0 0,-17.05679 2.02796,0 0,6.68679 c 0.48232,-0.73809 1.04869,-1.28984 1.6991,-1.65525 0.65771,-0.36539 1.41409,-0.54809 2.26913,-0.5481 1.41042,10e-6 2.47739,0.43849 3.20088,1.31543 0.72348,0.86966 1.08523,2.15221 1.08524,3.84765"
           inkscape:connector-curvature="0" />
        <path
           id="path4118"
           d="m 249.4533,300.88036 0,1.90737 c -0.57003,-0.2923 -1.16197,-0.51154 -1.77583,-0.65771 -0.61388,-0.14615 -1.24967,-0.21923 -1.90738,-0.21924 -1.0012,1e-5 -1.75392,0.15348 -2.25816,0.4604 -0.49695,0.30695 -0.74542,0.76735 -0.74541,1.38121 -1e-5,0.46771 0.17904,0.83677 0.53713,1.10715 0.35809,0.2631 1.07792,0.51522 2.1595,0.75638 l 0.69061,0.15346 c 1.43235,0.30694 2.44816,0.74177 3.04742,1.30448 0.60655,0.55541 0.90983,1.3337 0.90984,2.33489 -1e-5,1.14004 -0.45311,2.04258 -1.35928,2.7076 -0.89889,0.66502 -2.13759,0.99754 -3.7161,0.99754 -0.65772,0 -1.34467,-0.0658 -2.06085,-0.19732 -0.70887,-0.12423 -1.45794,-0.31424 -2.2472,-0.57002 l 0,-2.08277 c 0.74541,0.38733 1.47986,0.67964 2.20336,0.87696 0.72348,0.19 1.43966,0.28501 2.14854,0.28501 0.95002,0 1.68082,-0.16078 2.19239,-0.48233 0.51154,-0.32885 0.76732,-0.78926 0.76733,-1.3812 -1e-5,-0.5481 -0.18636,-0.9683 -0.55906,-1.26063 -0.3654,-0.29231 -1.17293,-0.57367 -2.42259,-0.84407 l -0.70156,-0.16443 c -1.24967,-0.26308 -2.1522,-0.66501 -2.7076,-1.20581 -0.55541,-0.54809 -0.83311,-1.29716 -0.83311,-2.2472 0,-1.15465 0.40924,-2.04622 1.22774,-2.67471 0.81849,-0.62848 1.98045,-0.94272 3.4859,-0.94273 0.7454,10e-6 1.44697,0.0548 2.10469,0.16443 0.65771,0.10963 1.26427,0.27406 1.81968,0.49329"
           inkscape:connector-curvature="0" />
        <path
           id="path4120"
           d="m 259.46156,305.74746 5.90849,0 0,1.79776 -5.90849,0 0,-1.79776"
           inkscape:connector-curvature="0" />
        <path
           id="path4122"
           d="m 281.21006,316.09554 -1.0962,0 -0.011,-3.29955 c -0.76734,-0.0146 -1.53468,-0.10231 -2.30201,-0.26309 -0.76734,-0.16808 -1.53833,-0.41655 -2.31297,-0.74541 l 0,-1.97315 c 0.74541,0.46771 1.49813,0.82215 2.25816,1.06331 0.76733,0.23386 1.55659,0.35444 2.36778,0.36174 l 0,-4.99864 c -1.61506,-0.26308 -2.79164,-0.70887 -3.52975,-1.33736 -0.73079,-0.62848 -1.09619,-1.49081 -1.09619,-2.58702 0,-1.19118 0.39828,-2.13026 1.19485,-2.81722 0.79657,-0.68693 1.94026,-1.08156 3.43109,-1.18389 l 0,-2.57606 1.0962,0 0,2.54318 c 0.67963,0.0292 1.33734,0.10232 1.97315,0.21923 0.63578,0.10964 1.25695,0.26311 1.86353,0.46041 l 0,1.91834 c -0.60658,-0.30693 -1.23141,-0.54443 -1.8745,-0.71253 -0.6358,-0.16807 -1.28986,-0.26673 -1.96218,-0.29597 l 0,4.68075 c 1.65889,0.25578 2.87932,0.71253 3.66128,1.37024 0.78194,0.65772 1.17292,1.5566 1.17293,2.69664 -1e-5,1.23505 -0.41656,2.21066 -1.24966,2.92684 -0.82581,0.70887 -2.02066,1.11812 -3.58455,1.22774 l 0,3.32147 m -1.0962,-11.74025 0,-4.49439 c -0.84773,0.095 -1.49448,0.33617 -1.94026,0.72348 -0.44579,0.38734 -0.66869,0.90255 -0.66868,1.54564 -1e-5,0.62849 0.20462,1.11813 0.61387,1.4689 0.41655,0.35079 1.08157,0.60291 1.99507,0.75637 m 1.0962,2.1047 0,4.74652 c 0.9281,-0.12424 1.62601,-0.38732 2.09373,-0.78926 0.475,-0.40194 0.71251,-0.93176 0.71252,-1.58948 -1e-5,-0.6431 -0.22655,-1.15466 -0.67964,-1.53468 -0.44579,-0.38 -1.15466,-0.65771 -2.12661,-0.8331"
           inkscape:connector-curvature="0" />
        <path
           id="path4124"
           d="m 296.40331,298.35911 -5.59059,8.73667 5.59059,0 0,-8.73667 m -0.58099,-1.9293 2.78434,0 0,10.66597 2.33489,0 0,1.84161 -2.33489,0 0,3.8586 -2.20335,0 0,-3.8586 -7.38835,0 0,-2.13758 6.80736,-10.37"
           inkscape:connector-curvature="0" />
        <path
           id="path4126"
           d="m 309.34938,297.88775 c -1.14005,1e-5 -1.99874,0.56272 -2.57606,1.68814 -0.57003,1.11813 -0.85504,2.80261 -0.85503,5.05345 -1e-5,2.24355 0.285,3.92804 0.85503,5.05346 0.57732,1.11812 1.43601,1.67718 2.57606,1.67718 1.14734,0 2.00602,-0.55906 2.57605,-1.67718 0.57732,-1.12542 0.86599,-2.80991 0.866,-5.05346 -10e-6,-2.25084 -0.28868,-3.93532 -0.866,-5.05345 -0.57003,-1.12542 -1.42871,-1.68813 -2.57605,-1.68814 m 0,-1.75392 c 1.83429,2e-5 3.23376,0.72716 4.19842,2.18143 0.97195,1.44699 1.45793,3.55168 1.45794,6.31408 -10e-6,2.75511 -0.48599,4.8598 -1.45794,6.31408 -0.96466,1.44698 -2.36413,2.17047 -4.19842,2.17047 -1.83431,0 -3.23744,-0.72349 -4.20939,-2.17047 -0.96465,-1.45428 -1.44698,-3.55897 -1.44698,-6.31408 0,-2.7624 0.48233,-4.86709 1.44698,-6.31408 0.97195,-1.45427 2.37508,-2.18141 4.20939,-2.18143"
           inkscape:connector-curvature="0" />
      </g>
      <g
         id="text4009"
         style="font-size:20.85461235px;font-style:normal;font-weight:normal;line-height:125%;letter-spacing:0px;word-spacing:0px;fill:#ffffff;fill-opacity:1;stroke:none;filter:url(#filter3917);font-family:Sans">
        <path
           id="path4129"
           d="m 159.13845,257.24272 3.36036,0 0,-11.59834 -3.65567,0.73317 0,-1.87366 3.6353,-0.73317 2.05695,0 0,13.472 3.36037,0 0,1.7311 -8.75731,0 0,-1.7311"
           inkscape:connector-curvature="0" />
        <path
           id="path4131"
           d="m 187.31458,249.75828 c 0.4684,-0.84178 1.02846,-1.46294 1.68018,-1.86348 0.65169,-0.40051 1.4188,-0.60078 2.30134,-0.60079 1.18799,1e-5 2.10445,0.41751 2.74938,1.2525 0.6449,0.82822 0.96736,2.00944 0.96738,3.54365 l 0,6.88366 -1.88384,0 0,-6.82256 c -2e-5,-1.09296 -0.19349,-1.90419 -0.58042,-2.43371 -0.38697,-0.52951 -0.97758,-0.79426 -1.77183,-0.79427 -0.97079,1e-5 -1.7379,0.32247 -2.30134,0.96737 -0.56347,0.64493 -0.84519,1.52406 -0.84518,2.63738 l 0,6.44579 -1.88384,0 0,-6.82256 c -1e-5,-1.09974 -0.19349,-1.91098 -0.58043,-2.43371 -0.38696,-0.52951 -0.98436,-0.79426 -1.79219,-0.79427 -0.9572,1e-5 -1.71753,0.32586 -2.28098,0.97756 -0.56345,0.64492 -0.84518,1.52065 -0.84518,2.62719 l 0,6.44579 -1.88384,0 0,-11.40487 1.88384,0 0,1.77183 c 0.42768,-0.69922 0.94022,-1.21515 1.53762,-1.54781 0.59739,-0.33263 1.3068,-0.49895 2.12823,-0.49896 0.8282,1e-5 1.53082,0.21046 2.10787,0.63134 0.58381,0.42091 1.01488,1.03188 1.29323,1.83293"
           inkscape:connector-curvature="0" />
        <path
           id="path4133"
           d="m 203.17956,248.88255 c -1.00472,1e-5 -1.79899,0.39375 -2.38281,1.18121 -0.58382,0.7807 -0.87573,1.8533 -0.87573,3.21781 0,1.36451 0.28852,2.4405 0.86555,3.22798 0.58382,0.78069 1.38148,1.17104 2.39299,1.17104 0.99792,0 1.78879,-0.39374 2.37262,-1.18122 0.58381,-0.78748 0.87572,-1.86008 0.87573,-3.2178 -1e-5,-1.35093 -0.29192,-2.42014 -0.87573,-3.20762 -0.58383,-0.79426 -1.3747,-1.19139 -2.37262,-1.1914 m 0,-1.58854 c 1.62926,1e-5 2.90891,0.52952 3.83896,1.58854 0.93002,1.05903 1.39504,2.52537 1.39506,4.39902 -2e-5,1.86687 -0.46504,3.33321 -1.39506,4.39902 -0.93005,1.05902 -2.2097,1.58853 -3.83896,1.58853 -1.63606,0 -2.91911,-0.52951 -3.84915,-1.58853 -0.92325,-1.06581 -1.38487,-2.53215 -1.38487,-4.39902 0,-1.87365 0.46162,-3.33999 1.38487,-4.39902 0.93004,-1.05902 2.21309,-1.58853 3.84915,-1.58854"
           inkscape:connector-curvature="0" />
        <path
           id="path4135"
           d="m 220.98948,252.09016 0,6.88366 -1.87366,0 0,-6.82256 c -1e-5,-1.07938 -0.21045,-1.88722 -0.63134,-2.42353 -0.4209,-0.53629 -1.05224,-0.80444 -1.89402,-0.80445 -1.01151,1e-5 -1.80917,0.32247 -2.39299,0.96737 -0.58382,0.64493 -0.87573,1.52406 -0.87573,2.63738 l 0,6.44579 -1.88384,0 0,-11.40487 1.88384,0 0,1.77183 c 0.44805,-0.68564 0.97416,-1.19818 1.57835,-1.53762 0.61097,-0.33942 1.31359,-0.50914 2.10787,-0.50915 1.31019,1e-5 2.30133,0.40733 2.97341,1.22195 0.67206,0.80786 1.0081,1.99926 1.00811,3.5742"
           inkscape:connector-curvature="0" />
        <path
           id="path4137"
           d="m 226.60026,244.33078 0,3.23817 3.85933,0 0,1.45616 -3.85933,0 0,6.19121 c 0,0.93004 0.12559,1.52744 0.37677,1.79219 0.25796,0.26476 0.77729,0.39714 1.55799,0.39714 l 1.92457,0 0,1.56817 -1.92457,0 c -1.44598,0 -2.44391,-0.26815 -2.99378,-0.80445 -0.54988,-0.54309 -0.82482,-1.52744 -0.82482,-2.95305 l 0,-6.19121 -1.37469,0 0,-1.45616 1.37469,0 0,-3.23817 1.88384,0"
           inkscape:connector-curvature="0" />
        <path
           id="path4139"
           d="m 242.41433,252.09016 0,6.88366 -1.87365,0 0,-6.82256 c -1e-5,-1.07938 -0.21046,-1.88722 -0.63134,-2.42353 -0.42091,-0.53629 -1.05225,-0.80444 -1.89403,-0.80445 -1.01151,1e-5 -1.80917,0.32247 -2.39298,0.96737 -0.58383,0.64493 -0.87574,1.52406 -0.87573,2.63738 l 0,6.44579 -1.88384,0 0,-15.84462 1.88384,0 0,6.21158 c 0.44804,-0.68564 0.97416,-1.19818 1.57835,-1.53762 0.61097,-0.33942 1.31359,-0.50914 2.10786,-0.50915 1.3102,1e-5 2.30133,0.40733 2.97341,1.22195 0.67207,0.80786 1.0081,1.99926 1.00811,3.5742"
           inkscape:connector-curvature="0" />
        <path
           id="path4141"
           d="m 251.86408,252.4262 5.48859,0 0,1.67 -5.48859,0 0,-1.67"
           inkscape:connector-curvature="0" />
        <path
           id="path4143"
           d="m 272.06699,262.03887 -1.01829,0 -0.0102,-3.06505 c -0.71281,-0.0136 -1.42561,-0.095 -2.13841,-0.24439 -0.71281,-0.15614 -1.42901,-0.38695 -2.1486,-0.69244 l 0,-1.83293 c 0.69244,0.43448 1.39167,0.76372 2.09769,0.98775 0.71279,0.21723 1.44596,0.32924 2.19951,0.33603 l 0,-4.64341 c -1.50029,-0.24438 -2.59326,-0.65849 -3.2789,-1.24231 -0.67887,-0.58382 -1.0183,-1.38487 -1.0183,-2.40317 0,-1.10653 0.36998,-1.97887 1.10994,-2.61701 0.73996,-0.63812 1.80237,-1.0047 3.18726,-1.09976 l 0,-2.39298 1.01829,0 0,2.36243 c 0.63133,0.0272 1.2423,0.0951 1.83292,0.20366 0.5906,0.10185 1.16763,0.24441 1.7311,0.42769 l 0,1.78201 c -0.56347,-0.28511 -1.14389,-0.50574 -1.74128,-0.66189 -0.59062,-0.15613 -1.1982,-0.24778 -1.82274,-0.27494 l 0,4.3481 c 1.541,0.23761 2.6747,0.6619 3.40109,1.27287 0.72637,0.61098 1.08956,1.44598 1.08957,2.50499 -10e-6,1.14728 -0.38696,2.05356 -1.16085,2.71884 -0.76712,0.6585 -1.87706,1.03866 -3.32981,1.14049 l 0,3.08542 m -1.01829,-10.9059 0,-4.175 c -0.78749,0.0883 -1.38828,0.31229 -1.80238,0.67208 -0.41411,0.3598 -0.62116,0.8384 -0.62116,1.43579 0,0.58383 0.19008,1.03866 0.57024,1.36451 0.38695,0.32586 1.00471,0.56007 1.8533,0.70262 m 1.01829,1.95512 0,4.4092 c 0.86214,-0.1154 1.51045,-0.35979 1.94493,-0.73317 0.44125,-0.37337 0.66188,-0.86554 0.66189,-1.47652 -1e-5,-0.59739 -0.21045,-1.0726 -0.63134,-1.42561 -0.41411,-0.353 -1.07261,-0.61097 -1.97548,-0.7739"
           inkscape:connector-curvature="0" />
        <path
           id="path4145"
           d="m 280.88539,257.24272 3.36036,0 0,-11.59834 -3.65567,0.73317 0,-1.87366 3.6353,-0.73317 2.05695,0 0,13.472 3.36037,0 0,1.7311 -8.75731,0 0,-1.7311"
           inkscape:connector-curvature="0" />
        <path
           id="path4147"
           d="m 293.82788,243.77072 8.07505,0 0,1.7311 -6.19121,0 0,3.72695 c 0.29869,-0.10182 0.59739,-0.1765 0.89609,-0.22403 0.2987,-0.0543 0.5974,-0.0814 0.8961,-0.0815 1.69715,1e-5 3.04129,0.46503 4.03244,1.39506 0.99112,0.93004 1.48669,2.18933 1.4867,3.77786 -1e-5,1.63606 -0.50916,2.90892 -1.52744,3.81859 -1.0183,0.90289 -2.45409,1.35433 -4.30737,1.35433 -0.63813,0 -1.28984,-0.0543 -1.95512,-0.16293 -0.6585,-0.10861 -1.34075,-0.27154 -2.04677,-0.48878 l 0,-2.06713 c 0.61098,0.33265 1.24232,0.58043 1.89403,0.74335 0.6517,0.16293 1.34074,0.2444 2.06713,0.24439 1.17442,10e-6 2.10446,-0.30888 2.79012,-0.92664 0.68564,-0.61776 1.02846,-1.45615 1.02847,-2.51518 -10e-6,-1.05902 -0.34283,-1.89741 -1.02847,-2.51518 -0.68566,-0.61776 -1.6157,-0.92664 -2.79012,-0.92665 -0.54988,1e-5 -1.09976,0.0611 -1.64963,0.1833 -0.5431,0.1222 -1.09976,0.31228 -1.67,0.57024 l 0,-7.63719"
           inkscape:connector-curvature="0" />
      </g>
      <rect
         ry="1.0849915"
         y="224.83235"
         x="148.2821"
         height="2.1699829"
         width="169.25859"
         id="rect4013"
         style="fill:url(#linearGradient4252);fill-opacity:1;stroke:none" />
      <rect
         style="fill:url(#linearGradient4254);fill-opacity:1;stroke:none"
         id="rect4025"
         width="169.25859"
         height="2.1699829"
         x="148.2821"
         y="278.16565"
         ry="1.0849915" />
      <rect
         ry="1.0849915"
         y="331.49902"
         x="148.2821"
         height="2.1699829"
         width="169.25859"
         id="rect4029"
         style="fill:url(#linearGradient4256);fill-opacity:1;stroke:none" />
      <rect
         style="fill:url(#linearGradient4258);fill-opacity:1;stroke:none"
         id="rect4033"
         width="169.25859"
         height="2.1699829"
         x="148.2821"
         y="384.83234"
         ry="1.0849915" />
      <g
         id="text4039"
         style="font-size:30.73658562px;font-style:normal;font-weight:normal;line-height:125%;letter-spacing:0px;word-spacing:0px;fill:#ffffff;fill-opacity:1;stroke:none;filter:url(#filter3917);font-family:Sans">
        <path
           id="path4072"
           d="m 150.04857,419.71956 4.95267,0 0,-17.09423 -5.38791,1.08059 0,-2.76149 5.35789,-1.08059 3.03164,0 0,19.85572 4.95267,0 0,2.55138 -12.90696,0 0,-2.55138"
           inkscape:connector-curvature="0" />
        <path
           id="path4074"
           d="m 185.48269,423.83178 c -0.78043,2.00107 -1.54084,3.30678 -2.28123,3.91711 -0.74041,0.61032 -1.73094,0.91549 -2.97161,0.91549 l -2.20619,0 0,-2.31124 1.62088,0 c 0.7604,-10e-6 1.35072,-0.1801 1.77095,-0.54029 0.42022,-0.3602 0.88548,-1.21066 1.39576,-2.55138 l 0.49526,-1.26068 -6.79866,-16.53893 2.92658,0 5.25283,13.1471 5.25283,-13.1471 2.92658,0 -7.38398,18.36992"
           inkscape:connector-curvature="0" />
        <path
           id="path4076"
           d="m 211.05649,413.17603 0,1.35073 -12.69685,0 c 0.12006,1.90103 0.69036,3.35181 1.71092,4.35234 1.03055,0.99054 2.46132,1.48581 4.29231,1.48581 1.06057,0 2.08612,-0.13007 3.07667,-0.39021 1.00052,-0.26014 1.99105,-0.65035 2.9716,-1.17064 l 0,2.61141 c -0.99055,0.42023 -2.0061,0.7404 -3.04665,0.96052 -1.04057,0.22012 -2.09614,0.33018 -3.1667,0.33018 -2.68146,0 -4.8076,-0.78042 -6.37845,-2.34126 -1.56084,-1.56084 -2.34126,-3.67198 -2.34126,-6.33342 0,-2.75147 0.7404,-4.93265 2.2212,-6.54353 1.4908,-1.62086 3.49688,-2.4313 6.01825,-2.43131 2.2612,1e-5 4.04717,0.73041 5.35789,2.19118 1.32069,1.45079 1.98105,3.42686 1.98107,5.9282 m -2.76149,-0.81044 c -0.02,-1.5108 -0.44526,-2.71645 -1.27569,-3.61695 -0.82046,-0.90047 -1.91104,-1.35072 -3.27177,-1.35073 -1.54084,10e-6 -2.7765,0.43525 -3.707,1.3057 -0.9205,0.87049 -1.45079,2.09615 -1.59086,3.67699 l 9.84532,-0.015"
           inkscape:connector-curvature="0" />
        <path
           id="path4078"
           d="m 223.22805,413.82138 c -2.23121,0 -3.77704,0.25514 -4.6375,0.76541 -0.86047,0.51028 -1.2907,1.38075 -1.2907,2.61141 0,0.98053 0.32017,1.76095 0.96052,2.34126 0.65035,0.57031 1.53082,0.85546 2.64143,0.85546 1.53081,0 2.75647,-0.54029 3.67698,-1.62087 0.93049,-1.09059 1.39574,-2.53636 1.39575,-4.33734 l 0,-0.61533 -2.74648,0 m 5.50797,-1.14062 0,9.59018 -2.76149,0 0,-2.55138 c -0.63035,1.02055 -1.41577,1.77596 -2.35627,2.26622 -0.94051,0.48026 -2.09113,0.72039 -3.45186,0.72039 -1.72093,0 -3.09167,-0.48026 -4.11222,-1.44078 -1.01055,-0.97052 -1.51582,-2.26622 -1.51582,-3.8871 0,-1.89101 0.63034,-3.31678 1.89102,-4.2773 1.27068,-0.96051 3.1617,-1.44077 5.67307,-1.44078 l 3.87208,0 0,-0.27015 c -10e-6,-1.27067 -0.42023,-2.2512 -1.26068,-2.94158 -0.83045,-0.70037 -2.00109,-1.05056 -3.51189,-1.05057 -0.96053,10e-6 -1.89603,0.11508 -2.80652,0.34519 -0.91049,0.23013 -1.78596,0.57532 -2.62641,1.03555 l 0,-2.55137 c 1.01054,-0.3902 1.99107,-0.68035 2.94159,-0.87047 0.9505,-0.20009 1.876,-0.30015 2.77649,-0.30016 2.4313,1e-5 4.24728,0.63035 5.44794,1.89102 1.20064,1.26069 1.80096,3.17172 1.80097,5.73309"
           inkscape:connector-curvature="0" />
        <path
           id="path4080"
           d="m 244.17936,408.04326 c -0.31018,-0.18009 -0.65036,-0.31016 -1.02055,-0.39021 -0.36021,-0.09 -0.76042,-0.13506 -1.20065,-0.13508 -1.56085,2e-5 -2.7615,0.51029 -3.60194,1.53083 -0.83046,1.01056 -1.24568,2.46634 -1.24567,4.36736 l 0,8.85478 -2.7765,0 0,-16.80908 2.7765,0 0,2.61141 c 0.5803,-1.02053 1.33571,-1.77594 2.26622,-2.26622 0.93049,-0.50025 2.0611,-0.75039 3.39183,-0.7504 0.19009,1e-5 0.4002,0.015 0.63034,0.045 0.23011,0.02 0.48525,0.055 0.76541,0.10506 l 0.015,2.83653"
           inkscape:connector-curvature="0" />
      </g>
    </g>
  </g>
</svg>
